<?xml version="1.0" standalone="no"?>
<!DOCTYPE svg PUBLIC "-//W3C//DTD SVG 20010904//EN"
 "http://www.w3.org/TR/2001/REC-SVG-20010904/DTD/svg10.dtd">
<svg version="1.0" xmlns="http://www.w3.org/2000/svg"
 width="16.000000pt" height="16.000000pt" viewBox="0 0 16.000000 16.000000"
 preserveAspectRatio="xMidYMid meet">
<metadata>
Created by potrace 1.11, written by Peter Selinger 2001-2013
</metadata>
<g transform="translate(0.000000,16.000000) scale(0.000640,-0.000640)"
fill="#000000" stroke="none">
<path d="M6536 22890 c-3179 -1133 -5781 -2061 -5783 -2064 -2 -2 394 -3445
880 -7652 l883 -7648 4859 -2698 c2673 -1484 4878 -2707 4901 -2719 l40 -22
675 373 c371 205 1070 592 1554 860 484 268 1539 852 2345 1297 806 446 1733
959 2060 1140 327 181 1208 668 1958 1083 749 414 1362 757 1362 762 0 8 694
5537 1645 13108 151 1201 271 2187 267 2191 -5 5 -10947 3737 -11857 4045 -5
2 -2611 -924 -5789 -2056z m9568 -8872 c2073 -4412 3771 -8029 3773 -8038 4
-14 -13 -15 -134 -13 -76 2 -653 12 -1283 23 -629 11 -1147 24 -1151 28 -3 4
-356 817 -784 1807 -428 990 -782 1810 -788 1823 l-10 22 -3232 0 -3231 0
-718 -1797 c-396 -989 -723 -1802 -728 -1808 -5 -6 -489 -18 -1276 -32 -1577
-27 -1414 -26 -1410 -9 5 24 7193 16015 7198 16016 3 0 1701 -3610 3774 -8022z"/>
<path d="M11278 14358 l-1066 -2533 1145 -3 c630 -1 1657 -1 2283 0 l1138 3
-1211 2533 c-666 1392 -1214 2532 -1217 2532 -3 0 -486 -1140 -1072 -2532z"/>
</g>
</svg>
